<?xml version="1.0" encoding="UTF-8" standalone="no"?>
<svg xmlns="http://www.w3.org/2000/svg" width="700" height="700" version="1.1">
  <title>3.4 Движение грузовых автомобилей запрещено</title>
  <circle style="fill:#ffffff;" cx="350" cy="350" r="350"/>
  <circle style="fill:none;stroke:#000000;stroke-width:2;" cx="350" cy="350" r="349"/>
  <path style="fill:#ff0000;" d="m 350 690 a 340 340 0 0 0 340 -340 a 340 340 0 0 0 -340 -340 a 340 340 0 0 0 -340 340 a 340 340 0 0 0 340 340 z m 0 -57.74 a 282.26 282.26 0 0 1 -282.26 -282.26 a 282.26 282.26 0 0 1 282.26 -282.26 a 282.26 282.26 0 0 1 282.26 282.26 a 282.26 282.26 0 0 1 -282.26 282.26 z"/>
  <path style="fill:#000000;" transform="scale(1.12903226)" d="m 500 340 v -140 a 20 20 0 0 0 -20 -20 h -220 a 20 20 0 0 0 -20 20 v 140 z"/>
  <path style="fill:#ffffff;" transform="scale(1.12903226)" d="m 340 214.28 c -14.56 0 -28 7.84 -28 23.52 c 0 15.68 15.68 20.16 15.68 20.16 c 0 0 -17.92 6.72 -17.92 22.40 c 0 11.20 7.84 25.76 30.24 25.76 c 22.40 0 30.24 -14.56 30.24 -25.76 c 0 -15.68 -17.92 -22.40 -17.92 -22.40 c 0 0 15.68 -4.48 15.68 -20.16 c 0 -15.68 -13.44 -23.52 -28 -23.52 z m 0 12.80 c 6.72 0 12.32 2.88 12.32 10.72 c 0 6.72 -12.32 13.44 -12.32 13.44 c 0 0 -12.32 -6.72 -12.32 -13.44 c 0 -7.84 5.60 -10.72 12.32 -10.72 z m 0 37.60 c 0 0 14.56 7.84 14.56 16.80 c 0 7.84 -7.84 11.20 -14.56 11.20 c -6.72 0 -14.56 -3.36 -14.56 -11.20 c 0 -7.84 14.56 -16.80 14.56 -16.80 z"/>
  <path style="fill:#ffffff;" transform="scale(1.12903226)" d="m 388.32 254.60 h 18.88 v 50.40 h 13.44 v -50.40 h 18.72 v -12.32 h -51.04 z"/>
  <path style="fill:#000000;" transform="scale(1.12903226)" d="m 100 368 a 20 20 0 0 0 20 20 h 18.05 a 42 42 0 0 1 41.95 -40 a 42 42 0 0 1 41.95 40 h 156.10 a 42 42 0 0 1 24.06 -36 h -174.11 v -92 a 20 20 0 0 0 -20 -20 h -57 a 20 20 0 0 0 -16.58 8.82 l -31 45.96 a 20 20 0 0 0 -3.42 11.18 z m 33.18 -68 a 10 10 0 0 1 -10 -10 a 10 10 0 0 1 1.71 -5.59 l 19.48 -28.88 a 8 8 0 0 1 6.63 -3.53 h 47 a 10 10 0 0 1 10 10 v 28 a 10 10 0 0 1 -10 10 z"/>
  <path style="fill:#000000;" transform="scale(1.12903226)" d="m 500 388 v -36 h -62.11 a 42 42 0 0 1 24.06 36 z"/>
  <path style="fill:#000000;" transform="scale(1.12903226)" d="m 180 424 a 34 34 0 0 0 34 -34 a 34 34 0 0 0 -34 -34 a 34 34 0 0 0 -34 34 a 34 34 0 0 0 34 34 z m 0 -16 a 18 18 0 0 1 -18 -18 a 18 18 0 0 1 18 -18 a 18 18 0 0 1 18 18 a 18 18 0 0 1 -18 18 z"/>
  <path style="fill:#000000;" transform="scale(1.12903226)" d="m 420 424 a 34 34 0 0 0 34 -34 a 34 34 0 0 0 -34 -34 a 34 34 0 0 0 -34 34 a 34 34 0 0 0 34 34 z m 0 -16 a 18 18 0 0 1 -18 -18 a 18 18 0 0 1 18 -18 a 18 18 0 0 1 18 18 a 18 18 0 0 1 -18 18 z"/>
</svg>
