<?xml version="1.0" encoding="UTF-8" standalone="no"?>
<svg xmlns="http://www.w3.org/2000/svg" width="700" height="700" version="1.1">
  <title>3.7 Движение с прицепом запрещено</title>
  <circle style="fill:#ffffff;" cx="350" cy="350" r="350"/>
  <circle style="fill:none;stroke:#000000;stroke-width:2;" cx="350" cy="350" r="349"/>
  <path style="fill:#ff0000;" d="m 350 690 a 340 340 0 0 0 340 -340 a 340 340 0 0 0 -340 -340 a 340 340 0 0 0 -340 340 a 340 340 0 0 0 340 340 z m 0 -57.74 a 282.26 282.26 0 0 1 -282.26 -282.26 a 282.26 282.26 0 0 1 282.26 -282.26 a 282.26 282.26 0 0 1 282.26 282.26 a 282.26 282.26 0 0 1 -282.26 282.26 z"/>
  <path style="fill:#000000;" transform="scale(1.12903226)" d="m 220 240 v 105 h -120 v 15 h 175.28 a 45 45 0 0 1 44.72 -40 a 45 45 0 0 1 44.72 40 h 95.28 v -120 z"/>
  <path style="fill:#000000;" transform="scale(1.12903226)" d="m 320 400 a 35 35 0 0 0 35 -35 a 35 35 0 0 0 -35 -35 a 35 35 0 0 0 -35 35 a 35 35 0 0 0 35 35 z m 0 -17 a 18 18 0 0 1 -18 -18 a 18 18 0 0 1 18 -18 a 18 18 0 0 1 18 18 a 18 18 0 0 1 -18 18 z"/>
</svg>
